<?xml version="1.0" encoding="UTF-8" standalone="no"?>
<!-- Created with Inkscape (http://www.inkscape.org/) -->

<svg
   xmlns:dc="http://purl.org/dc/elements/1.1/"
   xmlns:cc="http://creativecommons.org/ns#"
   xmlns:rdf="http://www.w3.org/1999/02/22-rdf-syntax-ns#"
   xmlns:svg="http://www.w3.org/2000/svg"
   xmlns="http://www.w3.org/2000/svg"
   xmlns:sodipodi="http://sodipodi.sourceforge.net/DTD/sodipodi-0.dtd"
   xmlns:inkscape="http://www.inkscape.org/namespaces/inkscape"
   width="746.09003"
   height="176"
   id="svg2"
   version="1.1"
   inkscape:version="0.48.4 r9939"
   inkscape:export-filename="/home/maria/Escritorio/Enlace hacia Sharing_stuff/terminadas/bocadillo.png"
   inkscape:export-xdpi="90"
   inkscape:export-ydpi="90"
   sodipodi:docname="bocadillo.svg">
  <defs
     id="defs4" />
  <sodipodi:namedview
     id="base"
     pagecolor="#ffffff"
     bordercolor="#666666"
     borderopacity="1.0"
     inkscape:pageopacity="0"
     inkscape:pageshadow="2"
     inkscape:zoom="1.4"
     inkscape:cx="348.72793"
     inkscape:cy="106.79327"
     inkscape:document-units="px"
     inkscape:current-layer="layer1"
     showgrid="false"
     inkscape:snap-center="true"
     inkscape:object-nodes="true"
     inkscape:window-width="1280"
     inkscape:window-height="744"
     inkscape:window-x="0"
     inkscape:window-y="25"
     inkscape:window-maximized="1" />
  <metadata
     id="metadata7">
    <rdf:RDF>
      <cc:Work
         rdf:about="">
        <dc:format>image/svg+xml</dc:format>
        <dc:type
           rdf:resource="http://purl.org/dc/dcmitype/StillImage" />
        <dc:title />
      </cc:Work>
    </rdf:RDF>
  </metadata>
  <g
     inkscape:label="Capa 1"
     inkscape:groupmode="layer"
     id="layer1"
     transform="translate(0,-876.36209)">
    <path
       style="font-size:medium;font-style:normal;font-variant:normal;font-weight:normal;font-stretch:normal;text-indent:0;text-align:start;text-decoration:none;line-height:normal;letter-spacing:normal;word-spacing:normal;text-transform:none;direction:ltr;block-progression:tb;writing-mode:lr-tb;text-anchor:start;baseline-shift:baseline;color:#000000;fill:#bf7000;fill-opacity:1;fill-rule:evenodd;stroke:none;stroke-width:4.56400013000000015;marker:none;visibility:visible;display:inline;overflow:visible;enable-background:accumulate;font-family:Sans;-inkscape-font-specification:Sans"
       d="m 360.12842,878.88086 c -85.88352,1.26335 -176.48142,0.0872 -255.49286,20.22321 -35.726524,9.1049 -78.049922,21.61199 -90.97248,43.4818 -9.860347,16.6874 2.129193,37.36226 19.181539,51.83586 16.497178,14.00237 46.586892,20.41517 72.782831,27.37877 22.38666,5.951 46.50645,9.7808 70.74319,11.9423 151.44996,13.5068 306.58238,-1.0268 459.29029,5.7606 32.68636,1.4527 64.85384,8.0697 97.53079,7.4713 -24.70055,-3.796 -58.19261,-10.2987 -65.39764,-25.1741 -6.96182,-14.3733 18.26667,-28.07937 31.69321,-40.70375 15.12832,-14.22447 8.23427,-36.8087 -8.71936,-50.27958 -39.92428,-31.72272 -119.50874,-37.26558 -184.77959,-44.73199 -48.13371,-4.98811 -97.08863,-7.92185 -145.85992,-7.20442 z m 0,2.91095 c 66.30879,1.62719 130.9078,11.22258 196.37367,16.79507 47.39872,7.47865 100.63421,17.21071 129.70041,40.63046 11.11779,8.95802 15.30721,22.09221 10.45889,32.8589 -8.41726,18.69231 -34.76251,35.10366 -63.62488,43.92176 -97.4798,29.7821 -235.50105,16.9696 -327.23163,17.2869 -87.1765,-0.9685 -180.87426,-2.9672 -254.977848,-34.0179 -27.044496,-11.03284 -39.965528,-36.30388 -29.110866,-54.10279 16.329389,-26.77608 76.36577,-35.74595 121.195714,-45.52981 67.68138,-14.77104 142.11731,-15.80757 214.09261,-17.91925 1.04093,-0.0306 3.12393,0.0767 3.12393,0.0767 z"
       id="path3763"
       inkscape:connector-curvature="0"
       sodipodi:nodetypes="aaaaaaacasacascaaaccaaas" />
    <path
       style="fill:#a0a0a0;fill-opacity:0;stroke:none"
       d="m 414.90172,204.48006 c -1.17857,-0.13433 -22.07143,-0.5955 -46.42857,-1.0248 -24.35714,-0.42932 -62.60714,-1.10412 -85,-1.49956 -89.41459,-1.579 -137.2393,-6.27788 -184.642859,-18.14154 C 72.338118,177.18397 47.516589,167.8296 38.127514,160.93738 32.429884,156.75493 25.633663,148.98059 22.902306,143.52093 14.73807,127.20158 19.348267,112.92216 36.456514,101.53872 52.048607,91.164103 74.260498,84.045164 122.75886,73.878712 196.09483,58.505686 228.11294,55.278259 338.83029,52.098699 c 34.79636,-0.999275 67.52696,0.993224 139.64286,8.500861 14.92857,1.55414 38.875,3.969356 53.21428,5.367145 59.10088,5.761132 111.03128,17.917141 137.85715,32.269974 18.79672,10.056941 27.80654,19.807501 29.01865,31.404431 0.86363,8.26273 -2.30907,15.3334 -11.04919,24.62421 -13.27646,14.11296 -32.80236,24.70091 -59.61699,32.32741 -30.94892,8.80235 -65.04738,13.89603 -112.99533,16.87939 -11.31032,0.70374 -95.24619,1.54976 -100,1.00794 l 0,0 z"
       id="path3810"
       inkscape:connector-curvature="0"
       transform="translate(0,652.36209)" />
  </g>
</svg>
