<?xml version="1.0" encoding="UTF-8" standalone="no"?>
<!-- Created with Inkscape (http://www.inkscape.org/) -->

<svg
   xmlns:dc="http://purl.org/dc/elements/1.1/"
   xmlns:cc="http://creativecommons.org/ns#"
   xmlns:rdf="http://www.w3.org/1999/02/22-rdf-syntax-ns#"
   xmlns:svg="http://www.w3.org/2000/svg"
   xmlns="http://www.w3.org/2000/svg"
   xmlns:sodipodi="http://sodipodi.sourceforge.net/DTD/sodipodi-0.dtd"
   xmlns:inkscape="http://www.inkscape.org/namespaces/inkscape"
   width="404.564"
   height="404.564"
   id="svg2"
   version="1.1"
   inkscape:version="0.48.4 r9939"
   sodipodi:docname="stuff_reciclable.png">
  <defs
     id="defs4" />
  <sodipodi:namedview
     id="base"
     pagecolor="#ffffff"
     bordercolor="#666666"
     borderopacity="1.0"
     inkscape:pageopacity="0.0"
     inkscape:pageshadow="2"
     inkscape:zoom="0.7"
     inkscape:cx="146.27114"
     inkscape:cy="329.77597"
     inkscape:document-units="px"
     inkscape:current-layer="layer1"
     showgrid="true"
     inkscape:window-width="1280"
     inkscape:window-height="747"
     inkscape:window-x="0"
     inkscape:window-y="31"
     inkscape:window-maximized="1"
     fit-margin-top="0"
     fit-margin-left="0"
     fit-margin-right="0"
     fit-margin-bottom="0">
    <inkscape:grid
       type="xygrid"
       id="grid3025"
       empspacing="5"
       visible="true"
       enabled="true"
       snapvisiblegridlinesonly="true"
       originx="-700.96238px"
       originy="-255.44093px" />
  </sodipodi:namedview>
  <metadata
     id="metadata7">
    <rdf:RDF>
      <cc:Work
         rdf:about="">
        <dc:format>image/svg+xml</dc:format>
        <dc:type
           rdf:resource="http://purl.org/dc/dcmitype/StillImage" />
        <dc:title></dc:title>
      </cc:Work>
    </rdf:RDF>
  </metadata>
  <g
     inkscape:label="Capa 1"
     inkscape:groupmode="layer"
     id="layer1"
     transform="translate(-700.96238,-392.35725)">
    <path
       style="fill:#a0a0a0;stroke:none"
       d=""
       id="path3840"
       inkscape:connector-curvature="0" />
    <rect
       style="opacity:0.93999999;fill:#759a48;fill-opacity:1;fill-rule:evenodd;stroke:#ffffff;stroke-width:4.56400013;stroke-miterlimit:4;stroke-opacity:1;stroke-dasharray:none"
       id="rect2989-7-4"
       width="400"
       height="400"
       x="703.24438"
       y="394.63925"
       rx="27.142822"
       ry="27.142853" />
    <g
       id="g3871"
       transform="matrix(1.5710537,0,0,1.5710537,-1406.0323,-256.4073)">
      <path
         sodipodi:nodetypes="csasssscsssscscsscsccacsssssssssssss"
         inkscape:connector-curvature="0"
         id="path3018"
         d="m 1537.9057,530.90172 c -6.9267,-3.14009 -20.6249,-9.13415 -28,-11.53807 -7.9601,-2.59462 -2.38,-13.99603 2,-17.83156 4.1021,-3.59218 18.6353,3.81305 16,1.04892 -5,-5.24458 -33.7139,-31.0417 -50.4826,-38.40501 -11.1371,-4.89038 -15.2018,-5.47286 -32.0133,-4.58749 -22.4765,1.18371 -34.1721,6.04141 -51.0909,21.22039 -12.9498,11.61801 -14.1782,36.68765 -16.4132,50.09282 -1.046,6.27419 -11.4667,0.75424 -13.8125,0.75424 -2.9376,0 -3.3629,-2.85352 -2.4526,-16.45711 2.7164,-40.59881 32.899,-75.83518 76.2651,-83.94409 36.1264,-6.75518 55,-5.24458 95,20.9783 8.48,5.55925 27.6889,42.68644 30,41.95662 5,-10.48915 -2.5726,-29.83432 5,-31.46746 7.5726,-1.63314 14.3718,15.1312 15,15.73373 0.8118,0.77878 0,4.3935 0,20.97831 0,20.97831 -2.7627,37.0317 -10,36.71204 -2.3525,-0.10384 -28.073,-2.1045 -35,-5.24458 z m 35,-5.24457 c 4.7153,-7.09918 6.1716,-34.41616 5,-41.95662 0,0 0,-5.24458 -7,-14.68482 -5.2564,-2.75677 3.0134,26.07428 -6,29.36963 -6.9319,2.53435 -12.8461,-8.53599 -17,-14.68481 -5.2148,-18.10162 -32.0085,-35.23885 -50,-41.95662 -42.4772,-15.86039 -82.8043,-2.55077 -101.5902,17.32519 -8.4098,8.8977 -28.4098,29.87601 -28.4098,50.85431 0,15.73374 5,10.48916 15,-20.9783 4.2215,-13.28403 19.4349,-23.18046 29.7937,-28.07174 14.0729,-6.64492 17.8257,-7.4166 35.8562,-7.37265 16.6057,0.0406 22.4184,1.0704 33.1367,5.87136 17.3345,7.76448 25.481,17.54033 37.2134,28.52411 10.6463,9.96702 27.5464,19.88923 19,22.02722 -3.0089,0.75273 -15,-5.24457 -20,-5.24457 -6.9833,0 -10.791,9.03922 -5,10.48915 6.8798,1.72251 25.8471,7.91877 29.744,8.44175 15.256,2.04741 22.5812,13.60241 30.256,2.04741 z"
         style="fill:#5f4421;fill-opacity:1" />
      <path
         sodipodi:nodetypes="csasssscsssscscsscsccacsssssssssssss"
         inkscape:connector-curvature="0"
         id="path3018-8"
         d="m 1399.8059,549.58442 c 6.9267,3.14013 20.6249,9.13416 28,11.53807 7.9601,2.5947 2.38,13.99609 -2,17.83156 -4.1021,3.59222 -18.6353,-3.81302 -16,-1.04892 5,5.24458 33.7138,31.04171 50.4826,38.40499 11.1371,4.89047 15.2018,5.47293 32.0133,4.58754 22.4765,-1.1837 34.1721,-6.04144 51.0909,-21.2204 12.9498,-11.618 14.1781,-36.6876 16.4131,-50.09284 1.046,-6.2742 11.4667,-0.75417 13.8126,-0.75417 2.9376,0 3.3628,2.85347 2.4526,16.45706 -2.7165,40.5988 -32.8991,75.83522 -76.2651,83.94407 -36.1264,6.75523 -55,5.24458 -95,-20.97831 -8.48,-5.55925 -27.6889,-42.68645 -30,-41.95661 -5,10.48915 2.5726,29.8343 -5,31.46746 -7.5726,1.63316 -14.3718,-15.13113 -15,-15.73373 -0.8118,-0.77872 0,-4.39349 0,-20.97831 0,-20.97831 2.7627,-37.03165 10,-36.71204 2.3525,0.10384 28.073,2.10454 35,5.24458 z m -35,5.24457 c -4.7153,7.09917 -6.1716,34.41618 -5,41.95662 0,0 0,5.24458 7,14.68482 5.2564,2.75676 -3.0134,-26.07426 6,-29.36964 6.9319,-2.53428 12.8461,8.53597 17,14.68482 5.2148,18.10166 32.0084,35.23884 50,41.95662 42.4772,15.86044 82.8043,2.55075 101.5902,-17.32515 8.4097,-8.89774 28.4097,-29.87605 28.4097,-50.85436 0,-15.73373 -5,-10.48915 -15,20.97831 -4.2215,13.2841 -19.4348,23.18051 -29.7937,28.07181 -14.0728,6.64488 -17.8256,7.41657 -35.8561,7.37262 -16.6057,-0.0409 -22.4184,-1.07042 -33.1367,-5.87141 -17.3345,-7.76449 -25.4811,-17.54028 -37.2134,-28.5241 -10.6464,-9.96701 -27.5464,-19.88922 -19,-22.02723 3.0089,-0.7527 15,5.24458 20,5.24458 6.9832,0 10.791,-9.03924 5,-10.48915 -6.8798,-1.72253 -25.8471,-7.91879 -29.744,-8.44167 -15.256,-2.04749 -22.5812,-13.60244 -30.256,-2.04749 z"
         style="fill:#5f4421;fill-opacity:1" />
      <path
         inkscape:connector-curvature="0"
         id="path3861"
         d="m 1557.5821,527.67625 c -1.9643,-1.05934 -11.2393,-3.96557 -20.611,-6.45828 -9.3718,-2.49271 -19.2082,-5.4383 -21.8587,-6.54575 -4.2792,-1.78798 -4.6404,-2.34741 -3.2241,-4.99379 2.4693,-4.61403 5.0933,-4.87054 16.0689,-1.57089 10.5343,3.16697 13.5325,2.61519 11.8217,-2.17559 -0.8361,-2.34149 -15.1358,-15.26809 -38.4938,-34.79764 -15.2844,-12.77928 -31.8102,-18.56045 -53.0561,-18.56045 -22.783,0 -40.9842,7.14839 -55.434,21.77124 -7.2653,7.35237 -9.4399,10.72171 -12.2256,18.94304 -8.4662,24.98502 -12.2955,29.91502 -11.3185,14.5719 0.7142,-11.21623 5.4148,-21.19965 16.7514,-35.57723 14.26,-18.08527 27.1098,-27.0191 48.0084,-33.37785 11.7894,-3.58714 39.4352,-3.67009 51.4285,-0.1543 28.211,8.2699 52.6249,25.5803 60.8969,43.17818 3.5863,7.62953 12.5818,17.78787 15.7517,17.78787 5.3706,0 7.0995,-3.4765 8.1956,-16.48009 l 1.0795,-12.80562 3.308,7.08311 c 3.008,6.44073 3.2292,8.38412 2.4392,21.42857 -0.4778,7.89 -1.5731,16.79792 -2.434,19.79537 -2.8723,10.0008 -9.0927,13.25333 -17.094,8.9382 l 0,0 z"
         style="fill:#bf7000;fill-opacity:1;stroke:none" />
      <path
         inkscape:connector-curvature="0"
         id="path3863"
         d="m 1466.8678,644.52921 c -33.4819,-5.13219 -64.4368,-23.98597 -75.6223,-46.05946 -4.9997,-9.86646 -11.7925,-17.32447 -15.7793,-17.32447 -5.3536,0 -7.1172,3.80198 -7.8841,16.99697 l -0.7143,12.28875 -3.2143,-6.01452 c -3.6503,-6.83035 -4.2781,-19.9694 -1.7263,-36.12834 1.897,-12.0125 5.095,-16.5028 11.5433,-16.20777 5.2861,0.24187 49.7979,12.95934 51.7535,14.78649 1.7324,1.61864 -0.1841,6.70904 -2.9214,7.75943 -1.2725,0.4883 -6.4137,-0.47661 -11.425,-2.14424 -16.2341,-5.40237 -17.7021,-1.07108 -3.7523,11.07098 5.2488,4.5686 14.9825,13.30254 21.6304,19.40877 16.4984,15.15404 30.4443,22.08056 48.1121,23.89586 19.1549,1.9681 34.0432,0.0367 46.7296,-6.06223 19.4364,-9.34392 28.6835,-18.48502 33.3497,-32.96758 3.4718,-10.77547 9.4038,-23.82542 10.8301,-23.82542 1.9441,0 1.4409,10.21152 -0.8901,18.06081 -3.1096,10.47097 -12.4007,23.94681 -25.5652,37.07952 -12.5583,12.52796 -22.7691,18.4382 -39.1278,22.64814 -9.3864,2.41562 -28.0124,3.85941 -35.3263,2.73831 z"
         style="fill:#f5f3cd;fill-opacity:1;stroke:none" />
    </g>
  </g>
</svg>
