<?xml version="1.0" encoding="UTF-8" standalone="no"?>
<!-- Created with Inkscape (http://www.inkscape.org/) -->

<svg
   xmlns:dc="http://purl.org/dc/elements/1.1/"
   xmlns:cc="http://creativecommons.org/ns#"
   xmlns:rdf="http://www.w3.org/1999/02/22-rdf-syntax-ns#"
   xmlns:svg="http://www.w3.org/2000/svg"
   xmlns="http://www.w3.org/2000/svg"
   xmlns:sodipodi="http://sodipodi.sourceforge.net/DTD/sodipodi-0.dtd"
   xmlns:inkscape="http://www.inkscape.org/namespaces/inkscape"
   width="404.5625"
   height="404.5625"
   id="svg2"
   version="1.1"
   inkscape:version="0.48.4 r9939"
   sodipodi:docname="stuff_ida_vuelta.png">
  <defs
     id="defs4" />
  <sodipodi:namedview
     id="base"
     pagecolor="#ffffff"
     bordercolor="#666666"
     borderopacity="1.0"
     inkscape:pageopacity="0.0"
     inkscape:pageshadow="2"
     inkscape:zoom="0.7"
     inkscape:cx="427.94731"
     inkscape:cy="182.53699"
     inkscape:document-units="px"
     inkscape:current-layer="layer1"
     showgrid="true"
     inkscape:window-width="1280"
     inkscape:window-height="747"
     inkscape:window-x="0"
     inkscape:window-y="31"
     inkscape:window-maximized="1"
     fit-margin-top="0"
     fit-margin-left="0"
     fit-margin-right="0"
     fit-margin-bottom="0">
    <inkscape:grid
       type="xygrid"
       id="grid3025"
       empspacing="5"
       visible="true"
       enabled="true"
       snapvisiblegridlinesonly="true"
       originx="-189.42857px"
       originy="-444.85772px" />
  </sodipodi:namedview>
  <metadata
     id="metadata7">
    <rdf:RDF>
      <cc:Work
         rdf:about="">
        <dc:format>image/svg+xml</dc:format>
        <dc:type
           rdf:resource="http://purl.org/dc/dcmitype/StillImage" />
        <dc:title></dc:title>
      </cc:Work>
    </rdf:RDF>
  </metadata>
  <g
     inkscape:label="Capa 1"
     inkscape:groupmode="layer"
     id="layer1"
     transform="translate(-189.42857,-202.94196)">
    <path
       style="fill:#a0a0a0;stroke:none"
       d=""
       id="path3840"
       inkscape:connector-curvature="0" />
    <g
       id="g3862"
       transform="translate(-528.57143,-15.714286)">
      <rect
         ry="27.142853"
         rx="27.142822"
         y="220.93361"
         x="720.28571"
         height="400"
         width="400"
         id="rect2989-7"
         style="opacity:0.93999999;fill:#759a48;fill-opacity:1;fill-rule:evenodd;stroke:#ffffff;stroke-width:4.56400013;stroke-miterlimit:4;stroke-opacity:1;stroke-dasharray:none" />
      <path
         sodipodi:nodetypes="csccsssssscccsccssssssscsssssss"
         inkscape:connector-curvature="0"
         id="path3002-7"
         d="m 745.01933,375.45266 c 7.11922,-6.44702 16.27372,-7.04701 133.34175,-8.73915 l 125.69772,-1.81687 -31.69597,-27.25319 c -52.86232,-43.09169 -47.88977,-78.31552 -1.58911,-67.69295 7.63838,1.75245 64.89628,50.52489 110.90018,93.89555 29.0993,27.43371 28.3225,29.75891 -27.2532,81.57804 -65.96108,61.50257 -72.43089,66.63975 -83.92612,66.63975 -13.66985,0 -25.99508,-12.17065 -25.99508,-25.66901 0,-8.83502 5.56929,-16.21536 29.97851,-39.72708 l 29.97849,-28.87624 -124.62136,-0.10282 -124.6214,-0.10282 -8.91921,-8.91924 c -10.93935,-10.93932 -11.44111,-24.00824 -1.2752,-33.21423 z m 7.61774,26.87169 c 3.23136,3.23136 38.51783,4.3605 136.26593,4.3605 128.3627,0 131.9054,0.19041 131.9054,7.08696 0,3.89781 -2.2851,8.39459 -5.078,9.99283 -9.0368,5.17128 -63.96338,58.78926 -63.96338,62.43949 0,6.13843 11.11879,14.95843 18.85706,14.95843 8.41465,0 16.54433,-6.64447 76.52912,-62.54813 30.0539,-28.00922 42.6193,-42.12466 42.4354,-47.67036 -0.3274,-9.8682 -112.11939,-109.08779 -124.76058,-110.72959 -8.44239,-1.09648 -20.32852,7.31643 -20.32852,14.3883 0,3.27075 12.32601,15.28886 63.1185,61.54188 8.4339,7.68021 13.2607,14.78289 11.7295,17.26034 -1.8933,3.06349 -37.96553,4.20978 -132.47584,4.20978 -133.88353,0 -138.59509,0.49413 -138.59509,14.53504 0,3.19771 1.96223,7.77624 4.3605,10.17453 z"
         style="fill:#5f4421;fill-opacity:1" />
      <path
         sodipodi:nodetypes="csccsssssscccsccssssssscsssssss"
         inkscape:connector-curvature="0"
         id="path3002-7-6"
         d="m 1091.3941,468.65198 c -7.1192,6.44702 -16.2737,7.04701 -133.3418,8.73915 l -125.6977,1.81687 31.696,27.25319 c 52.86229,43.09169 47.88974,78.31552 1.5891,67.69295 -7.6384,-1.75245 -64.8963,-50.52489 -110.9002,-93.89555 -29.0993,-27.43371 -28.3225,-29.75891 27.2532,-81.57807 65.9611,-61.5025 72.4309,-66.6397 83.9261,-66.6397 13.66987,0 25.9951,12.1706 25.9951,25.669 0,8.835 -5.56929,16.2153 -29.9785,39.7271 l -29.9785,28.87621 124.62136,0.10282 124.62144,0.10282 8.9192,8.91924 c 10.9393,10.93932 11.4411,24.00824 1.2752,33.21423 z m -7.6178,-26.87169 c -3.2313,-3.23136 -38.5178,-4.3605 -136.2659,-4.3605 -128.3627,0 -131.9054,-0.19041 -131.9054,-7.08696 0,-3.89781 2.2851,-8.39459 5.078,-9.99283 9.0368,-5.17128 63.96338,-58.78928 63.96338,-62.43948 0,-6.1384 -11.11878,-14.9584 -18.85708,-14.9584 -8.4146,0 -16.5443,6.6444 -76.5291,62.5481 -30.0539,28.00921 -42.6193,42.12465 -42.4354,47.67035 0.3274,9.8682 112.1194,109.08779 124.7606,110.72959 8.44237,1.09648 20.3285,-7.31643 20.3285,-14.3883 0,-3.27075 -12.32601,-15.28886 -63.1185,-61.54188 -8.4339,-7.68021 -13.2607,-14.78289 -11.7295,-17.26034 1.8933,-3.06349 37.9655,-4.20978 132.47584,-4.20978 133.88356,0 138.59506,-0.49413 138.59506,-14.53504 0,-3.19771 -1.9622,-7.77624 -4.3605,-10.17453 z"
         style="fill:#5f4421;fill-opacity:1" />
      <path
         inkscape:connector-curvature="0"
         id="path3836"
         d="m 1016.8035,423.21364 c 4.3534,-4.05584 5.516,-9.62908 2.614,-12.53112 -3.3537,-3.35367 -25.33072,-4.31763 -101.58624,-4.45578 l -64.25891,-0.11641 14.06595,-14.11894 14.06596,-14.11893 65.19295,-0.66061 c 66.51009,-0.67396 73.05009,-1.23137 73.05009,-6.22618 0,-2.57432 -15.657,-18.45987 -51.07142,-51.81688 -25.76429,-24.26751 -26.50309,-25.58916 -18.3204,-32.77366 10.73735,-9.42752 15.17178,-7.94342 42.96326,14.37877 42.79576,34.37364 94.99996,83.9481 94.99996,90.21432 0,4.22799 -3.4395,8.76446 -17.6938,23.33639 l -11.5288,11.78572 -22.8009,0 -22.8009,0 3.1092,-2.89669 0,0 z"
         style="fill:#bf7000;fill-opacity:1;stroke:none" />
      <path
         inkscape:connector-curvature="0"
         id="path3838"
         d="m 759.02548,403.65949 c -5.59832,-0.70397 -8.96269,-4.30207 -10.00009,-10.69479 -1.5557,-9.58666 5.19568,-12.26508 33.77906,-13.40088 l 19.28572,-0.76635 -13.57143,12.92548 c -14.62791,13.93168 -14.39065,13.83566 -29.49326,11.93654 z"
         style="fill:#bf7000;fill-opacity:1;stroke:none" />
      <path
         inkscape:connector-curvature="0"
         id="path3842"
         d="m 964.23303,498.795 c -4.9018,-1.94887 -11.42857,-8.41976 -11.42857,-11.33072 0,-1.31847 1.33237,-4.09105 2.96082,-6.1613 l 2.96083,-3.76408 22.39632,0.064 22.39627,0.064 -7.14282,6.4914 c -15.99701,14.53803 -23.6387,18.01777 -32.14285,14.63667 z"
         style="fill:#bf7000;fill-opacity:1;stroke:none" />
      <path
         inkscape:connector-curvature="0"
         id="path3844"
         d="M 861.89582,557.64005 C 830.81763,536.81583 747.09017,460.15434 747.09017,452.52313 c 0,-2.40376 8.6094,-13.09011 20.41613,-25.34137 l 9.29298,-9.64286 23.19739,0 23.1974,0 -3.76624,3.76623 c -4.78816,4.78816 -5.04348,11.11797 -0.55195,13.68351 2.48736,1.42075 21.44277,1.93642 83.81512,2.2801 l 80.60081,0.44413 -13.91987,13.97231 -13.91988,13.9723 -63.10952,0.91225 c -65.63697,0.94877 -73.55406,1.46112 -74.85221,4.84406 -1.55285,4.04665 3.6836,9.93199 33.17127,37.28177 29.74009,27.5839 40.71428,38.98634 40.71428,42.30304 0,2.02968 -6.53169,8.36737 -10.97751,10.65146 -5.37139,2.75961 -9.84721,1.78958 -18.50255,-4.01001 l 0,0 z"
         style="fill:#f5f3cd;fill-opacity:1;stroke:none" />
      <path
         inkscape:connector-curvature="0"
         id="path3846"
         d="m 1047.8045,452.3916 c 10.8241,-10.26569 14.978,-13.36523 17.1428,-12.79162 1.5714,0.41637 5.8857,0.76583 9.5872,0.77655 8.797,0.0255 12.5557,3.74131 12.5557,12.41257 0,5.74307 -0.3464,6.28538 -5.3572,8.38831 -2.9464,1.23655 -10.8214,2.5455 -17.5,2.90878 -6.6785,0.36327 -16.3214,0.92905 -21.4285,1.25729 l -9.2858,0.59679 14.2858,-13.54867 0,0 z"
         style="fill:#f5f3cd;fill-opacity:1;stroke:none" />
      <path
         inkscape:connector-curvature="0"
         id="path3848"
         d="m 839.60434,360.16067 c 16.82596,-14.79008 23.76678,-18.24131 31.11302,-15.47052 4.64783,1.75303 13.51982,9.67204 13.50857,12.05756 -0.004,0.82801 -1.45033,3.20759 -3.21428,5.28796 -3.16703,3.73511 -3.49775,3.79219 -26.40731,4.55771 l -23.20012,0.77523 8.20012,-7.20794 z"
         style="fill:#f5f3cd;fill-opacity:1;stroke:none" />
      <path
         inkscape:connector-curvature="0"
         id="path3850"
         d="m 793.2306,404.97536 c -1.1423,-0.7261 2.74231,-5.19592 11.60988,-13.35885 l 13.32658,-12.26763 23.12796,-1.04811 c 12.72038,-0.57646 23.4211,-0.75497 23.77938,-0.39669 0.35828,0.35828 -5.80792,6.85126 -13.70268,14.42883 l -14.3541,13.77742 -21.03515,-0.0219 c -11.56934,-0.012 -21.80768,-0.51292 -22.75187,-1.11309 z"
         style="fill:#dab267;fill-opacity:1;stroke:none" />
      <path
         inkscape:connector-curvature="0"
         id="path3852"
         d="m 985.18365,451.70855 14.52205,-14.36598 22.6208,1.00018 c 12.4415,0.5501 22.7415,1.08995 22.889,1.19966 0.1475,0.10971 -6.23,6.13238 -14.1721,13.3837 l -14.4403,13.18422 -22.97075,-0.0179 -22.97075,-0.0179 14.52205,-14.36598 z"
         style="fill:#dab267;fill-opacity:1;stroke:none" />
    </g>
  </g>
</svg>
