<?xml version="1.0" encoding="UTF-8" standalone="no"?>
<!-- Created with Inkscape (http://www.inkscape.org/) -->

<svg
   xmlns:dc="http://purl.org/dc/elements/1.1/"
   xmlns:cc="http://creativecommons.org/ns#"
   xmlns:rdf="http://www.w3.org/1999/02/22-rdf-syntax-ns#"
   xmlns:svg="http://www.w3.org/2000/svg"
   xmlns="http://www.w3.org/2000/svg"
   xmlns:sodipodi="http://sodipodi.sourceforge.net/DTD/sodipodi-0.dtd"
   xmlns:inkscape="http://www.inkscape.org/namespaces/inkscape"
   width="404.5625"
   height="404.5625"
   id="svg3854"
   version="1.1"
   inkscape:version="0.48.4 r9939"
   sodipodi:docname="stuff_ida.png">
  <defs
     id="defs3856" />
  <sodipodi:namedview
     id="base"
     pagecolor="#ffffff"
     bordercolor="#666666"
     borderopacity="1.0"
     inkscape:pageopacity="0.0"
     inkscape:pageshadow="2"
     inkscape:zoom="0.35"
     inkscape:cx="195.125"
     inkscape:cy="107.99495"
     inkscape:document-units="px"
     inkscape:current-layer="layer1"
     showgrid="false"
     fit-margin-top="0"
     fit-margin-left="0"
     fit-margin-right="0"
     fit-margin-bottom="0"
     inkscape:window-width="1280"
     inkscape:window-height="747"
     inkscape:window-x="0"
     inkscape:window-y="31"
     inkscape:window-maximized="1" />
  <metadata
     id="metadata3859">
    <rdf:RDF>
      <cc:Work
         rdf:about="">
        <dc:format>image/svg+xml</dc:format>
        <dc:type
           rdf:resource="http://purl.org/dc/dcmitype/StillImage" />
        <dc:title></dc:title>
      </cc:Work>
    </rdf:RDF>
  </metadata>
  <g
     inkscape:label="Capa 1"
     inkscape:groupmode="layer"
     id="layer1"
     transform="translate(-154.875,-235.79463)">
    <g
       transform="translate(-20,2.8571344)"
       id="g3875">
      <rect
         ry="27.142853"
         rx="27.142822"
         y="235.21933"
         x="177.14285"
         height="400"
         width="400"
         id="rect2989"
         style="opacity:0.93999999;fill:#759a48;fill-opacity:1;fill-rule:evenodd;stroke:#ffffff;stroke-width:4.56400013;stroke-miterlimit:4;stroke-opacity:1;stroke-dasharray:none" />
      <path
         sodipodi:nodetypes="csccsssssscccsccssssssscsssssss"
         inkscape:connector-curvature="0"
         id="path3002"
         d="m 197.87647,417.73837 c 7.11922,-6.44702 16.27372,-7.04701 133.34175,-8.73915 l 125.69768,-1.81687 -31.69593,-27.25319 c -52.86232,-43.09169 -47.88977,-78.31552 -1.58911,-67.69295 7.63838,1.75245 64.8963,50.52489 110.90016,93.89555 29.09931,27.43371 28.32251,29.75891 -27.2532,81.57804 -65.96106,61.50257 -72.43087,66.63975 -83.9261,66.63975 -13.66985,0 -25.99508,-12.17065 -25.99508,-25.66901 0,-8.83502 5.56929,-16.21536 29.97851,-39.72708 l 29.9785,-28.87624 -124.62137,-0.10282 -124.6214,-0.10282 -8.91921,-8.91924 c -10.93935,-10.93932 -11.44111,-24.00824 -1.2752,-33.21423 z m 7.61774,26.87169 c 3.23136,3.23136 38.51783,4.3605 136.26593,4.3605 128.36268,0 131.90542,0.19041 131.90542,7.08696 0,3.89781 -2.28513,8.39459 -5.07803,9.99283 -9.03679,5.17128 -63.96337,58.78926 -63.96337,62.43949 0,6.13843 11.11879,14.95843 18.85706,14.95843 8.41465,0 16.54433,-6.64447 76.52909,-62.54813 30.05398,-28.00922 42.61931,-42.12466 42.43539,-47.67036 -0.3274,-9.8682 -112.11935,-109.08779 -124.76054,-110.72959 -8.44239,-1.09648 -20.32852,7.31643 -20.32852,14.3883 0,3.27075 12.32601,15.28886 63.11846,61.54188 8.43398,7.68021 13.26075,14.78289 11.72959,17.26034 -1.89335,3.06349 -37.96558,4.20978 -132.47589,4.20978 -133.88353,0 -138.59509,0.49413 -138.59509,14.53504 0,3.19771 1.96223,7.77624 4.3605,10.17453 z"
         style="fill:#5f4421;fill-opacity:1" />
      <path
         inkscape:connector-curvature="0"
         id="path3834"
         d="m 416.20803,540.51926 c -6.13242,-2.78483 -10.54643,-7.66795 -10.54643,-11.66728 0,-2.83795 38.29994,-41.61804 54.9503,-55.63918 8.64181,-7.27722 12.26445,-11.32059 12.95354,-14.45798 0.52614,-2.3955 0.36204,-4.95003 -0.36467,-5.67674 -3.26409,-3.2641 -23.2578,-4.09795 -99.68203,-4.15729 -89.09326,-0.0692 -159.29145,-1.78856 -165.21711,-4.04669 -2.47737,-0.94406 -4.36721,-3.19708 -5.46053,-6.50989 -3.00128,-9.09397 0.29412,-13.05815 12.8205,-15.42231 3.53571,-0.66731 58.5,-1.77755 122.14285,-2.4672 63.64286,-0.68964 119.78655,-1.72152 124.76375,-2.29305 5.59547,-0.64253 9.33858,-1.79257 9.80694,-3.01309 1.44016,-3.753 -6.12827,-12.02322 -37.88423,-41.39708 -17.53673,-16.22126 -32.87544,-31.00488 -34.08604,-32.85248 -3.1259,-4.77073 -1.37739,-9.79492 4.8913,-14.05459 10.25761,-6.97024 14.18118,-5.34211 43.22257,17.93562 39.91167,31.99066 92.85714,82.38637 92.85714,88.3853 0,6.55517 -10.96298,18.60341 -50,54.94968 -45.66937,42.52147 -61.07017,55.17152 -67.0654,55.0868 -1.22117,-0.0173 -4.86727,-1.2334 -8.10245,-2.70255 l 0,0 z"
         style="fill:#bf7000;fill-opacity:1;stroke:none" />
    </g>
  </g>
</svg>
